<svg width="864" height="716" viewBox="0 0 864 716" fill="none" xmlns="http://www.w3.org/2000/svg">
<path d="M836.782 0L458.901 135.277V606.119C442.418 598.029 420.483 596.746 398.674 604.312C360.958 617.393 338.033 651.861 347.462 681.3C356.891 710.74 395.102 723.989 432.818 710.908C466.485 699.232 488.294 670.513 485.892 643.537V219.681L809.79 103.6V409.614C793.28 401.411 771.228 400.072 749.311 407.675C711.595 420.756 688.67 455.224 698.099 484.663C707.528 514.103 745.739 527.352 783.455 514.271C815.17 503.269 836.341 477.144 836.701 451.61H836.782V0ZM152.997 4.31665V406.954C136.181 398.602 112.681 397.862 90.3499 405.615C51.941 418.94 28.5844 454.044 38.1844 484.027C47.7844 514.009 86.7061 527.511 125.124 514.187C157.424 502.979 179.53 476.376 179.89 450.364H179.989V135.408C179.989 135.408 296.286 170.437 332.94 303.954C332.94 151.364 206.98 126.044 152.997 4.31665ZM318.752 659.773H0.0454102V678.501H319.229C318.293 672.306 318.133 666.011 318.752 659.773ZM863.773 678.501V659.773H511.984C510.943 666.216 509.157 672.504 506.667 678.501H863.773ZM27.7387 519.318H0.0454102V538.046H52.8588C43.1328 533.354 34.6125 527.034 27.7387 519.318ZM863.773 538.046V519.318H829.863C821.063 526.847 810.861 533.242 799.479 538.046H863.773ZM687.438 519.318H512.884V538.046H712.216C702.857 533.553 694.438 527.19 687.438 519.318ZM171.801 519.318C162.457 527.123 152.047 533.435 140.914 538.046H431.909V519.318H171.801ZM206.98 378.863H431.909V397.591H206.98V378.863ZM82.1445 378.863H0.0454102V397.591H47.2805C57.2314 389.866 68.8287 383.47 81.8206 378.957C81.9286 378.919 82.0366 378.901 82.1445 378.863ZM512.884 397.591H709.22C718.905 390.498 729.535 384.917 740.773 381.026L747.935 378.863H512.884V397.591ZM272.21 238.408H206.98V257.136H284.311C280.469 250.469 276.42 244.232 272.21 238.408ZM0.0454102 238.408H126.006V257.136H0.0454102V238.408ZM512.884 257.136H782.799V238.408H516.536L512.884 239.719V257.136ZM355.892 257.136H431.909V238.408H351.852L355.892 257.136ZM276.564 116.681H438.765C441.828 113.048 445.743 110.303 450.128 108.712L480.188 97.9533H258.138L276.564 116.681ZM0.0454102 97.9533H126.006V116.681H0.0454102V97.9533Z" fill="#FCE38F"/>
</svg>
